<svg width="35" height="35" viewBox="0 0 35 35" fill="none" xmlns="http://www.w3.org/2000/svg">
<circle opacity="0.1" cx="17.5" cy="17.5" r="17.5" fill="#3399FF"/>
<path d="M24.97 7.75H22.03C20.76 7.75 20 8.51 20 9.78V12.72C20 13.99 20.76 14.75 22.03 14.75H24.97C26.24 14.75 27 13.99 27 12.72V9.78C27 8.51 26.24 7.75 24.97 7.75ZM25.19 11.06C25.07 11.18 24.91 11.24 24.75 11.24C24.59 11.24 24.43 11.18 24.31 11.06L24.13 10.88V13.12C24.13 13.47 23.85 13.75 23.5 13.75C23.15 13.75 22.87 13.47 22.87 13.12V10.88L22.69 11.06C22.45 11.3 22.05 11.3 21.81 11.06C21.57 10.82 21.57 10.42 21.81 10.18L23.06 8.93C23.11 8.88 23.18 8.84 23.25 8.81C23.27 8.8 23.29 8.8 23.31 8.79C23.36 8.77 23.41 8.76 23.47 8.76C23.49 8.76 23.51 8.76 23.53 8.76C23.6 8.76 23.66 8.77 23.73 8.8C23.74 8.8 23.74 8.8 23.75 8.8C23.82 8.83 23.88 8.87 23.93 8.92C23.94 8.93 23.94 8.93 23.95 8.93L25.2 10.18C25.44 10.42 25.44 10.82 25.19 11.06Z" fill="#3399FF"/>
<path d="M7 17.46V22.46C7 24.75 8.85 26.6 11.14 26.6H22.85C25.14 26.6 27 24.74 27 22.45V17.46C27 16.79 26.46 16.25 25.79 16.25H8.21C7.54 16.25 7 16.79 7 17.46ZM13 23.25H11C10.59 23.25 10.25 22.91 10.25 22.5C10.25 22.09 10.59 21.75 11 21.75H13C13.41 21.75 13.75 22.09 13.75 22.5C13.75 22.91 13.41 23.25 13 23.25ZM19.5 23.25H15.5C15.09 23.25 14.75 22.91 14.75 22.5C14.75 22.09 15.09 21.75 15.5 21.75H19.5C19.91 21.75 20.25 22.09 20.25 22.5C20.25 22.91 19.91 23.25 19.5 23.25Z" fill="#3399FF"/>
<path d="M18.5 10.6104V13.5404C18.5 14.2104 17.96 14.7504 17.29 14.7504H8.21C7.53 14.7504 7 14.1904 7 13.5204C7.01 12.3904 7.46 11.3604 8.21 10.6104C8.96 9.86039 10 9.40039 11.14 9.40039H17.29C17.96 9.40039 18.5 9.94039 18.5 10.6104Z" fill="#3399FF"/>
</svg>
