<svg width="35" height="35" viewBox="0 0 35 35" fill="none" xmlns="http://www.w3.org/2000/svg">
<circle opacity="0.1" cx="17.5" cy="17.5" r="17.5" fill="#3399FF"/>
<path d="M24.97 14.75H22.03C20.76 14.75 20 13.99 20 12.72V9.78C20 8.51 20.76 7.75 22.03 7.75H24.97C26.24 7.75 27 8.51 27 9.78V12.72C27 13.99 26.24 14.75 24.97 14.75ZM25.19 11.44C25.07 11.32 24.91 11.26 24.75 11.26C24.59 11.26 24.43 11.32 24.31 11.44L24.13 11.62V9.38C24.13 9.03 23.85 8.75 23.5 8.75C23.15 8.75 22.87 9.03 22.87 9.38V11.62L22.69 11.44C22.45 11.2 22.05 11.2 21.81 11.44C21.57 11.68 21.57 12.08 21.81 12.32L23.06 13.57C23.11 13.62 23.18 13.66 23.25 13.69C23.27 13.7 23.29 13.7 23.31 13.71C23.36 13.73 23.41 13.74 23.47 13.74C23.49 13.74 23.51 13.74 23.53 13.74C23.6 13.74 23.66 13.73 23.73 13.7C23.74 13.7 23.74 13.7 23.75 13.7C23.82 13.67 23.88 13.63 23.93 13.58C23.94 13.57 23.94 13.57 23.95 13.57L25.2 12.32C25.44 12.08 25.44 11.68 25.19 11.44Z" fill="#3399FF"/>
<path d="M7 17.46V22.46C7 24.75 8.85 26.6 11.14 26.6H22.85C25.14 26.6 27 24.74 27 22.45V17.46C27 16.79 26.46 16.25 25.79 16.25H8.21C7.54 16.25 7 16.79 7 17.46ZM13 23.25H11C10.59 23.25 10.25 22.91 10.25 22.5C10.25 22.09 10.59 21.75 11 21.75H13C13.41 21.75 13.75 22.09 13.75 22.5C13.75 22.91 13.41 23.25 13 23.25ZM19.5 23.25H15.5C15.09 23.25 14.75 22.91 14.75 22.5C14.75 22.09 15.09 21.75 15.5 21.75H19.5C19.91 21.75 20.25 22.09 20.25 22.5C20.25 22.91 19.91 23.25 19.5 23.25Z" fill="#3399FF"/>
<path d="M18.5 10.6104V13.5404C18.5 14.2104 17.96 14.7504 17.29 14.7504H8.21C7.53 14.7504 7 14.1904 7 13.5204C7.01 12.3904 7.46 11.3604 8.21 10.6104C8.96 9.86039 10 9.40039 11.14 9.40039H17.29C17.96 9.40039 18.5 9.94039 18.5 10.6104Z" fill="#3399FF"/>
</svg>
